<svg width="24" height="24" viewBox="0 0 24 24" fill="none" xmlns="http://www.w3.org/2000/svg">
<path d="M20.6277 10.8536C20.1077 9.68319 19.3517 8.63271 18.4071 7.76786L17.6277 7.05268C17.6012 7.02906 17.5694 7.0123 17.5349 7.00387C17.5005 6.99544 17.4645 6.99559 17.4301 7.00432C17.3957 7.01305 17.364 7.03008 17.3377 7.05392C17.3115 7.07777 17.2915 7.10769 17.2795 7.14107L16.9312 8.14018C16.7143 8.76696 16.3152 9.40714 15.75 10.0366C15.7125 10.0768 15.6696 10.0875 15.6402 10.0902C15.6107 10.0929 15.5652 10.0875 15.525 10.05C15.4875 10.0179 15.4687 9.96964 15.4714 9.92143C15.5705 8.30893 15.0884 6.49018 14.033 4.51071C13.1598 2.86607 11.9464 1.58304 10.4304 0.688392L9.32411 0.0374997C9.17946 -0.0482146 8.99464 0.0642853 9.00268 0.233035L9.06161 1.51875C9.10179 2.39732 9 3.17411 8.75893 3.81964C8.46429 4.60982 8.04107 5.34375 7.5 6.00268C7.12345 6.46062 6.69667 6.87482 6.22768 7.2375C5.09814 8.1058 4.17968 9.21839 3.54107 10.492C2.90404 11.7766 2.57221 13.1911 2.57143 14.625C2.57143 15.8893 2.82054 17.1134 3.31339 18.2679C3.78928 19.3794 4.47605 20.3881 5.33571 21.2384C6.20357 22.0955 7.21071 22.7705 8.33304 23.2393C9.49554 23.7268 10.7277 23.9732 12 23.9732C13.2723 23.9732 14.5045 23.7268 15.667 23.242C16.7865 22.776 17.8046 22.0963 18.6643 21.2411C19.5321 20.3839 20.2125 19.3821 20.6866 18.2705C21.1787 17.1192 21.4312 15.8797 21.4286 14.6277C21.4286 13.3205 21.1607 12.0509 20.6277 10.8536ZM17.3839 19.942C15.9455 21.367 14.0357 22.1491 12 22.1491C9.96429 22.1491 8.05446 21.367 6.61607 19.942C5.18304 18.5196 4.39286 16.6339 4.39286 14.6277C4.39286 13.4625 4.65536 12.3455 5.17232 11.3063C5.67589 10.2911 6.42589 9.38304 7.33661 8.68393C7.91742 8.2398 8.44423 7.72918 8.90625 7.1625C9.57589 6.34554 10.1009 5.43482 10.4652 4.45714C10.6146 4.05385 10.7232 3.63658 10.7893 3.21161C11.4348 3.80625 11.9759 4.52411 12.4286 5.36518C13.3232 7.04196 13.7357 8.53393 13.6554 9.80357C13.6362 10.1026 13.685 10.4021 13.7982 10.6795C13.9114 10.957 14.086 11.2051 14.3089 11.4054C14.5021 11.5799 14.728 11.7142 14.9736 11.8007C15.2191 11.8871 15.4794 11.9239 15.7393 11.9089C16.267 11.8821 16.7518 11.6491 17.1054 11.2554C17.4616 10.8563 17.7696 10.4491 18.0268 10.0339C18.4018 10.5134 18.7152 11.0357 18.9643 11.5982C19.3902 12.5571 19.6071 13.5777 19.6071 14.6277C19.6071 16.6339 18.817 18.5223 17.3839 19.942Z" fill="#285471"/>
</svg>
